<?xml version="1.0" standalone="no"?>
<!DOCTYPE svg PUBLIC "-//W3C//DTD SVG 20010904//EN"
 "http://www.w3.org/TR/2001/REC-SVG-20010904/DTD/svg10.dtd">
<svg version="1.0" xmlns="http://www.w3.org/2000/svg"
 width="512.000000pt" height="512.000000pt" viewBox="0 0 512.000000 512.000000"
 preserveAspectRatio="xMidYMid meet">

<g transform="translate(0.000000,512.000000) scale(0.100000,-0.100000)"
fill="#000000" stroke="none">
<path d="M1400 3264 c5 -75 2 -84 -30 -84 -20 0 -30 -5 -30 -15 0 -12 14 -15
73 -14 39 0 66 3 59 6 -6 2 -10 9 -6 14 3 5 1 9 -5 9 -5 0 -11 -6 -14 -12 -2
-7 -8 1 -11 17 -4 17 -12 38 -18 49 -6 12 -6 21 0 25 6 4 4 11 -5 20 -13 12
-15 10 -13 -15z"/>
<path d="M1340 2840 c0 -5 14 -10 30 -10 l30 0 0 -305 0 -305 -30 0 c-20 0
-30 -5 -30 -15 0 -13 21 -15 133 -15 147 0 192 9 237 47 41 34 60 73 60 123 0
67 -45 130 -108 151 l-36 12 37 19 c41 21 72 61 61 79 -4 8 -3 9 4 5 7 -4 12
-1 12 8 0 28 -18 26 -30 -3 -6 -16 -25 -42 -41 -57 -29 -28 -35 -29 -135 -32
l-105 -4 3 144 3 143 59 3 c32 2 79 -1 105 -7 29 -6 47 -6 49 0 2 5 8 7 13 3
5 -3 9 -3 9 1 0 12 -45 22 -52 11 -6 -8 -8 -7 -8 2 0 9 -34 12 -135 12 -83 0
-135 -4 -135 -10z m324 -355 c50 -24 76 -67 76 -127 0 -94 -76 -141 -220 -136
l-85 3 -3 129 c-1 72 0 136 3 144 8 22 177 12 229 -13z"/>
<path d="M1670 2802 c0 -5 10 -17 22 -28 l21 -19 -18 28 c-18 28 -25 33 -25
19z"/>
<path d="M1729 2709 c0 -2 -2 -12 -4 -21 -2 -9 3 -19 11 -22 9 -4 13 1 11 14
-3 18 -16 39 -18 29z"/>
<path d="M1850 2469 c0 -5 5 -7 10 -4 6 3 10 8 10 11 0 2 -4 4 -10 4 -5 0 -10
-5 -10 -11z"/>
<path d="M1866 2445 c-4 -12 -2 -23 7 -30 7 -5 12 -15 10 -21 -5 -16 37 -85
48 -78 5 3 9 -1 9 -9 0 -15 41 -57 55 -57 5 0 0 7 -11 15 -10 8 -15 15 -11 15
9 0 -8 22 -40 52 -13 12 -23 32 -23 44 0 12 -8 30 -17 40 -10 10 -17 19 -15
21 2 2 2 9 0 15 -3 7 -8 4 -12 -7z"/>
</g>
</svg>
